<?xml version="1.0" encoding="UTF-8"?>
<!--
  Luz Diaria — White Icon — v3
  1024×1024 — Camino + libro abierto + llama (white, transparent bg)
-->
<svg width="1024" height="1024" viewBox="0 0 1024 1024" xmlns="http://www.w3.org/2000/svg">
  <defs>
    <radialGradient id="wGlow" cx="50%" cy="55%" r="50%">
      <stop offset="0%" stop-color="#FFFFFF" stop-opacity="0.5"/>
      <stop offset="100%" stop-color="#FFFFFF" stop-opacity="0"/>
    </radialGradient>
  </defs>

  <!-- ROAD -->
  <path
    d="M 366 1008 C 366 950 394 878 424 806 C 446 748 468 710 482 680
       L 542 680 C 556 710 578 748 600 806 C 630 878 658 950 658 1008 Z"
    fill="#FFFFFF" opacity="0.78"
  />
  <path
    d="M 482 680 C 484 628 492 570 499 526 L 525 526 C 532 570 540 628 542 680 Z"
    fill="#FFFFFF" opacity="0.55"
  />

  <!-- BOOK — Left cover -->
  <path
    d="M 512 680 C 454 665 366 658 264 672 C 220 678 192 694 176 710
       C 162 724 162 744 176 758 C 192 772 220 786 264 792
       C 366 806 454 800 512 785 Z"
    fill="#FFFFFF" opacity="0.60"
  />
  <!-- BOOK — Right cover -->
  <path
    d="M 512 680 C 570 665 658 658 760 672 C 804 678 832 694 848 710
       C 862 724 862 744 848 758 C 832 772 804 786 760 792
       C 658 806 570 800 512 785 Z"
    fill="#FFFFFF" opacity="0.60"
  />
  <!-- Left pages (brighter white) -->
  <path
    d="M 512 685 C 460 672 378 670 278 684 C 234 690 206 706 200 720
       C 194 734 200 750 212 762 C 226 772 252 780 306 786
       C 388 796 460 796 512 781 Z"
    fill="#FFFFFF" opacity="0.85"
  />
  <!-- Right pages -->
  <path
    d="M 512 685 C 564 672 646 670 746 684 C 790 690 818 706 824 720
       C 830 734 824 750 812 762 C 798 772 772 780 718 786
       C 636 796 564 796 512 781 Z"
    fill="#FFFFFF" opacity="0.85"
  />

  <!-- Glow -->
  <ellipse cx="512" cy="380" rx="278" ry="308" fill="url(#wGlow)"/>

  <!-- FLAME — outer -->
  <path
    d="M 512 526 C 454 496 410 438 418 366 C 424 308 462 264 482 214
       C 494 184 504 156 508 132 C 510 114 514 100 516 124
       C 520 158 530 188 550 214 C 566 264 606 308 612 366
       C 618 438 576 496 512 526 Z"
    fill="#FFFFFF" opacity="0.52"
  />
  <!-- FLAME — inner core -->
  <path
    d="M 512 518 C 468 490 438 434 444 368 C 450 308 476 270 492 230
       C 500 210 508 190 510 174 C 512 190 520 210 528 230
       C 544 270 570 308 576 368 C 582 434 554 490 512 518 Z"
    fill="#FFFFFF" opacity="0.92"
  />

  <!-- Cross negative space -->
  <rect x="508" y="186" width="8" height="234" rx="4" fill="#FFFFFF" opacity="0.22"/>
  <rect x="462" y="336" width="100" height="10" rx="5" fill="#FFFFFF" opacity="0.20"/>

  <!-- Flame base glow -->
  <ellipse cx="512" cy="526" rx="52" ry="18" fill="#FFFFFF" opacity="0.72"/>
  <circle cx="512" cy="140" r="10" fill="#FFFFFF" opacity="0.82"/>

</svg>
